<?xml version="1.0" standalone="no"?>
<!DOCTYPE svg PUBLIC "-//W3C//DTD SVG 1.1//EN" "http://www.w3.org/Graphics/SVG/1.1/DTD/svg11.dtd">

<svg width="135" height="50" viewBox="0 0 135 50" 
  xmlns="http://www.w3.org/2000/svg"
  xmlns:xlink="http://www.w3.org/1999/xlink">


<polyline points="0.0, 24.437375769628186 0.7988165680473372, 9.77490396682404 1.5976331360946745, 20.39518843984857 2.396449704142012, 24.085601327825906 3.195266272189349, 30.48027027957192 3.994082840236686, 23.915465314291943 4.792899408284024, 23.816807280173748 5.591715976331361, 17.12054032734144 6.390532544378698, 27.265461074693086 7.189349112426036, 23.58843286897811 7.988165680473372, 23.420378931761334 8.78698224852071, 21.027257801561532 9.585798816568047, 21.96093094892976 10.384615384615385, 20.93117186547614 11.183431952662723, 21.20200690237526 11.982248520710058, 25.01149997565272 12.781065088757396, 21.32283253285352 13.579881656804734, 20.822860391639896 14.378698224852071, 15.673049661230179 15.177514792899409, 23.72507619044932 15.976331360946745, 2.244552259616744 16.775147928994084, 0.0 17.57396449704142, 5.499272761294424 18.37278106508876, 2.0057739203305234 19.171597633136095, 0.8390504697980561 19.970414201183434, 13.800558480418806 20.76923076923077, 22.055724531313018 21.56804733727811, 23.572586016991256 22.366863905325445, 21.301016682232888 23.16568047337278, 27.174666250397078 23.964497041420117, 26.128888329622495 24.763313609467456, 22.586331831164262 25.562130177514792, 22.00642887982978 26.36094674556213, 24.315536729204076 27.159763313609467, 18.49255719103936 27.958579881656807, 18.32035443024508 28.757396449704142, 23.931801855458 29.55621301775148, 25.89595775731449 30.355029585798817, 18.998419568906428 31.153846153846157, 19.82761619300898 31.95266272189349, 26.756799283639392 32.751479289940825, 24.925535123468357 33.55029585798817, 21.585356500400437 34.349112426035504, 19.9042055289583 35.14792899408284, 24.92988114477383 35.94674556213018, 22.38919281748695 36.74556213017752, 23.777855417108533 37.54437869822485, 22.458313908637994 38.34319526627219, 23.763059590734866 39.142011834319526, 23.627949110122085 39.94082840236687, 24.66289030162568 40.7396449704142, 24.182316485909798 41.53846153846154, 50.0 42.337278106508876, 33.60495958360932 43.13609467455622, 13.146914841814658 43.93491124260355, 19.979956826535883 44.73372781065089, 21.60220266903509 45.532544378698226, 18.21304272883122 46.33136094674556, 13.77187214340068 47.1301775147929, 23.424189519355107 47.928994082840234, 22.422242771417437 48.72781065088758, 23.905284296000453 49.52662721893491, 19.557027587228102 50.32544378698225, 18.3772467957225 51.124260355029584, 23.653069705114348 51.92307692307693, 23.574952672978437 52.72189349112426, 21.389453591056125 53.5207100591716, 19.440273386282737 54.319526627218934, 26.314565306319704 55.11834319526627, 24.269778891051626 55.91715976331361, 44.849781179595695 56.71597633136094, 23.62370074337327 57.514792899408285, 24.98732947540724 58.31360946745562, 26.00105074700476 59.11242603550296, 35.67258547170729 59.91124260355029, 22.335241652395823 60.710059171597635, 22.664483161178335 61.50887573964497, 23.373584950587563 62.307692307692314, 23.78942807224259 63.10650887573964, 20.68169729772019 63.90532544378698, 7.853661215604705 64.70414201183432, 22.78860622607595 65.50295857988165, 17.64747573812311 66.30177514792899, 27.18188461138344 67.10059171597634, 20.02346584102529 67.89940828402366, 21.76675095355648 68.69822485207101, 18.245728714194296 69.49704142011834, 17.66588259133174 70.29585798816568, 22.430230459076807 71.09467455621302, 20.926306219391616 71.89349112426036, 20.17803576320413 72.6923076923077, 24.220445490430407 73.49112426035504, 21.233866044167105 74.28994082840237, 28.37229574894426 75.0887573964497, 27.551500628505003 75.88757396449704, 25.0030230890595 76.68639053254438, 20.798722089123913 77.48520710059172, 24.868582294006913 78.28402366863905, 25.69205161377318 79.0828402366864, 26.818457239605898 79.88165680473374, 15.878940753179302 80.68047337278107, 22.207664158946297 81.4792899408284, 27.05943596025932 82.27810650887574, 24.4249268308309 83.07692307692308, 25.618838333268844 83.87573964497041, 32.17365764269185 84.67455621301775, 21.453867422708676 85.4733727810651, 23.657157891964516 86.27218934911244, 23.334759365618954 87.07100591715975, 27.218995244559085 87.8698224852071, 30.748628834924702 88.66863905325444, 16.249759147539976 89.46745562130178, 27.251136052905583 90.26627218934911, 24.851841181291352 91.06508875739645, 27.359607197331204 91.8639053254438, 17.54159602621658 92.66272189349112, 18.748328443491705 93.46153846153845, 24.52255086640006 94.2603550295858, 24.5806417920385 95.05917159763314, 26.78332379334766 95.85798816568047, 31.88506321345767 96.65680473372781, 27.160930669951245 97.45562130177515, 20.37425683253541 98.2544378698225, 16.87008537072292 99.05325443786982, 16.63736023826828 99.85207100591715, 27.077412081465663 100.6508875739645, 26.39737800968821 101.44970414201183, 36.75838371328637 102.24852071005917, 31.575270087559037 103.04733727810651, 25.915732791510848 103.84615384615385, 26.25185267427348 104.64497041420118, 27.554517027683627 105.44378698224853, 24.32547654041394 106.24260355029585, 22.954030649368278 107.0414201183432, 26.73484987659481 107.84023668639053, 23.89528196776277 108.63905325443787, 23.09965386903742 109.43786982248521, 20.213373463216676 110.23668639053254, 28.33651381349378 111.03550295857988, 15.964272132580145 111.83431952662723, 17.899848479066176 112.63313609467457, 16.2581076712592 113.43195266272188, 20.195999134645916 114.23076923076923, 19.176869829136127 115.02958579881657, 19.798920303977013 115.82840236686391, 27.72233263263552 116.62721893491124, 27.7873242236451 117.42603550295858, 10.67180190345169 118.22485207100593, 18.89021863359334 119.02366863905324, 20.68913450410358 119.82248520710058, 26.26318060369964 120.62130177514793, 14.289454134488485 121.42011834319527, 22.4197155809623 122.2189349112426, 21.90639503249747 123.01775147928994, 18.835704977752034 123.81656804733728, 23.845786705461364 124.61538461538463, 17.516778763400488 125.41420118343194, 25.636981226587025 126.21301775147928, 25.28314551957974 127.01183431952663, 21.613674773865544 127.81065088757396, 19.188680616873203 128.60946745562129, 19.432200999323015 129.40828402366864, 25.047412946856596 130.20710059171597, 13.307081433199052 131.0059171597633, 31.907409161059142 131.80473372781066, 23.204431432344936 132.60355029585799, 25.09649430947814 133.40236686390534, 25.96302533363144 134.20118343195267, 21.364894184307303" fill="none" stroke="#57bd0f" stroke-width="1.25"/>

</svg>