<?xml version="1.0" standalone="no"?>
<!DOCTYPE svg PUBLIC "-//W3C//DTD SVG 1.1//EN" "http://www.w3.org/Graphics/SVG/1.1/DTD/svg11.dtd">

<svg width="135" height="50" viewBox="0 0 135 50" 
  xmlns="http://www.w3.org/2000/svg"
  xmlns:xlink="http://www.w3.org/1999/xlink">


<polyline points="0.0, 28.33601677374337 0.7988165680473372, 30.10347370006892 1.5976331360946745, 26.593703444717725 2.396449704142012, 27.052260046288474 3.195266272189349, 27.885720635111856 3.994082840236686, 25.56781551082406 4.792899408284024, 32.02953936373905 5.591715976331361, 31.91739771277596 6.390532544378698, 32.436262972354015 7.189349112426036, 41.13844028365198 7.988165680473372, 40.97409153880178 8.78698224852071, 46.45798079048115 9.585798816568047, 42.541327986154336 10.384615384615385, 38.284789511378925 11.183431952662723, 39.1550814226874 11.982248520710058, 39.30500443879731 12.781065088757396, 40.80986801718072 13.579881656804734, 47.61652860198398 14.378698224852071, 40.488896255035726 15.177514792899409, 37.46067401963516 15.976331360946745, 35.552286073718946 16.775147928994084, 28.465279394375752 17.57396449704142, 29.28513702768889 18.37278106508876, 28.680178693070395 19.171597633136095, 26.48367134517186 19.970414201183434, 21.340921183686085 20.76923076923077, 15.061060906333129 21.56804733727811, 13.688778736717477 22.366863905325445, 14.064665079475866 23.16568047337278, 13.258801140306106 23.964497041420117, 14.345974271402238 24.763313609467456, 12.956356358592846 25.562130177514792, 13.278598000182901 26.36094674556213, 15.532349918175484 27.159763313609467, 17.09603566174915 27.958579881656807, 14.278971494542372 28.757396449704142, 12.41483439607376 29.55621301775148, 14.447042959648645 30.355029585798817, 15.13575683570439 31.153846153846157, 6.750844149604555 31.95266272189349, 6.982711374983595 32.751479289940825, 5.498949378481559 33.55029585798817, 0.0 34.349112426035504, 2.4864697092306556 35.14792899408284, 2.9045422115597153 35.94674556213018, 3.5268389088530574 36.74556213017752, 3.7272763835619998 37.54437869822485, 5.45751404381798 38.34319526627219, 3.8405378264541774 39.142011834319526, 2.861889344719805 39.94082840236687, 1.9342846973646717 40.7396449704142, 3.2992447099806004 41.53846153846154, 4.059822602875587 42.337278106508876, 16.184433730452714 43.13609467455622, 10.818043444591208 43.93491124260355, 13.597540863244664 44.73372781065089, 13.1811961204657 45.532544378698226, 7.187138869385763 46.33136094674556, 6.780576680111361 47.1301775147929, 9.39635340523788 47.928994082840234, 9.787405448383758 48.72781065088758, 10.650112265652107 49.52662721893491, 6.541373301677311 50.32544378698225, 12.877927999809701 51.124260355029584, 8.186789930379392 51.92307692307693, 11.142902592509518 52.72189349112426, 8.250037337526376 53.5207100591716, 7.5696886345909125 54.319526627218934, 8.711661959655926 55.11834319526627, 6.607206474377642 55.91715976331361, 10.023195815863545 56.71597633136094, 11.580618005813022 57.514792899408285, 12.88899108087417 58.31360946745562, 14.262799502520847 59.11242603550296, 23.24342800211447 59.91124260355029, 24.36031148761163 60.710059171597635, 22.517220615871683 61.50887573964497, 24.826079824443745 62.307692307692314, 23.756711918497047 63.10650887573964, 24.29374671796178 63.90532544378698, 22.02719796595518 64.70414201183432, 25.146074375740184 65.50295857988165, 23.845158665511494 66.30177514792899, 24.877137037986195 67.10059171597634, 23.886266628789325 67.89940828402366, 21.441043870089178 68.69822485207101, 17.394682391319353 69.49704142011834, 9.375491461325984 70.29585798816568, 7.786991014078801 71.09467455621302, 4.078302026159561 71.89349112426036, 1.9808026815888096 72.6923076923077, 0.265648245656622 73.49112426035504, 2.918062357753828 74.28994082840237, 1.198470206445002 75.0887573964497, 8.699091918898484 75.88757396449704, 6.574795954304413 76.68639053254438, 4.452490534337576 77.48520710059172, 6.246512403213346 78.28402366863905, 6.821726943767184 79.0828402366864, 7.775674213316986 79.88165680473374, 8.28483189917998 80.68047337278107, 4.498119048794709 81.4792899408284, 5.612671503360675 82.27810650887574, 7.105600493247942 83.07692307692308, 14.983082957629277 83.87573964497041, 15.376176673574513 84.67455621301775, 15.879453095821777 85.4733727810651, 14.141496882985788 86.27218934911244, 14.868046337196628 87.07100591715975, 14.98096198577023 87.8698224852071, 19.05261110987229 88.66863905325444, 22.954662223765006 89.46745562130178, 19.073154382196154 90.26627218934911, 19.157429453575546 91.06508875739645, 24.64914632914538 91.8639053254438, 27.79748941682595 92.66272189349112, 21.452709935434118 93.46153846153845, 19.04362727317574 94.2603550295858, 19.333715006098434 95.05917159763314, 17.889694460339385 95.85798816568047, 21.66708637502094 96.65680473372781, 24.972257259863447 97.45562130177515, 22.818930681151297 98.2544378698225, 19.07036044846399 99.05325443786982, 11.903186963252786 99.85207100591715, 12.377203272755875 100.6508875739645, 10.518794817149981 101.44970414201183, 10.1853012694155 102.24852071005917, 13.168726007445189 103.04733727810651, 17.89486094092657 103.84615384615385, 22.755583053394876 104.64497041420118, 24.03697130476276 105.44378698224853, 22.142808712524367 106.24260355029585, 24.352420030968183 107.0414201183432, 30.10138780420002 107.84023668639053, 35.649937547667356 108.63905325443787, 42.73611821724026 109.43786982248521, 40.79592877856405 110.23668639053254, 46.56972451406446 111.03550295857988, 47.213311596527966 111.83431952662723, 42.803948820857784 112.63313609467457, 42.00395580162811 113.43195266272188, 42.03938629356349 114.23076923076923, 41.777131487979894 115.02958579881657, 35.67687970359347 115.82840236686391, 36.531322646250345 116.62721893491124, 42.15068512631627 117.42603550295858, 41.07909915046694 118.22485207100593, 38.90734681184754 119.02366863905324, 39.845074081398145 119.82248520710058, 46.613935709047354 120.62130177514793, 42.03040910378258 121.42011834319527, 40.17894049608121 122.2189349112426, 37.5888717510267 123.01775147928994, 32.184584438829724 123.81656804733728, 30.42001046359786 124.61538461538463, 32.168551815649245 125.41420118343194, 37.717414068076906 126.21301775147928, 42.80230460559304 127.01183431952663, 45.9699577162588 127.81065088757396, 44.76371288637544 128.60946745562129, 43.228381431647705 129.40828402366864, 41.05383606048029 130.20710059171597, 41.00272474977736 131.0059171597633, 42.09328903665619 131.80473372781066, 45.55798276627427 132.60355029585799, 50.0 133.40236686390534, 49.16861588501138 134.20118343195267, 44.51599387550008" fill="none" stroke="#ed5565" stroke-width="1.25"/>

</svg>